/* XPM */
static char *image_xpm[] = {
/* width height ncolors chars_per_pixel */
"64 64 40 1",
"  c #0066cc",
". c #0066ff",
"+ c #0033cc",
"@ c #0033ff",
"# c #cccc00",
"$ c #cc9900",
"% c #0099ff",
"& c #00ccff",
"* c #3366cc",
"= c #99ccff",
"- c #cccc33",
"; c #ffffff",
"> c #6699cc",
", c #99cc66",
"' c #336699",
") c #66cccc",
"! c #9999ff",
"~ c #999999",
"{ c #66ccff",
"] c #999933",
"^ c #339999",
"/ c #99cccc",
"( c #ccffff",
"_ c #6699ff",
": c #3399cc",
"< c #666699",
"[ c #669966",
"} c #cccccc",
"| c #6666ff",
"1 c #ffcc33",
"2 c #33ccff",
"3 c #3399ff",
"4 c #ccccff",
"5 c #3366ff",
"6 c #9999cc",
"7 c #99cc99",
"8 c #99ffff",
"9 c #3333ff",
"0 c #669999",
"a c #999966",
";;;;;;;;;;;;;;;;;;;;;;;;;;;;;;;;;;;;;;;;;;;;;;;;;;;;;;;;;;;;;;;;",
";;;;;;;;;;;;;;;;;;;;;;;;;;;;;;;;;;;;;;;;;;;;;;;;;;;;;;;;;;;;;;;;",
";;;;;;;;;;;;;;;;;;;;;;;;;;;;;;;;;;;;;;;;;;;;;;;;;;;;;;;;;;;;;;;;",
";;;;;;;;;;;;;;;;;;;;;;;;;;;;;;;;;;;;;;;;;;;;;;;;;;;;;;;;;;;;;;;;",
";;;;;;;;;;;;;;;;;;;;;;;;;;;;;;;;;;;;;;;;;;;;;;;;;;;;;;;;;;;;;;;;",
";;;;;;;;;;;;;;;;;;;;;;;;;;;;;;;;;;;;;;;;;;;;;;;;;;;;;;;;;;;;;;;;",
";;;;;;;;;;;;;;;;;;;;;;;;;;;;;;;;;;;;;;;;;;;;;;;;;;;;;;;;;;;;;;;;",
";;;;;;;;;;;;;;;;;;;==_=_=_=_=_=>=_=_=_=>=_=_=4;;;;;;;;;;;;;;;;;;",
";;;;;;;;;;;;;;;;4_*3*3*3*3*3*3*3*3*3*3*3*3*3*3*4;;;;;;;;;;;;;;;;",
";;;;;;;;;;;;;;;=3*3*3*3*3*3:3*3:3*3:3*3:3*3:3*=;;;;;;;;;;;;;;;;;",
";;;;;;;;;;;;;;/3 5*3 3*3*3*3*3*3*3*3*3*3*3*3 _;;;;;;;;;;;;;;;;;;",
";;;;;;;;;;;;;43*35_4;;;;;;;;;;;;;;;;;;;;;;;;;;;;;;;;;;;;;;;;;;;;",
";;;;;;;;;;;;43 5 _(;;;;;;;;;;;;;;;;;;;;;;;;;;;;;;;>4;;;;;;;;;;;;",
";;;;;;;;;;;;_*35_;;;;;;;;;;;;;;;;;;;;;;;;;;;;;;;;>3:(;;;;;;;;;;;",
";;;;;;;;;;;_ 5 3};;;;;;;;;;;;;;;;;;;;;;;;;;;;;;;/:*_};;;;;;;;;;;",
";;;;;;;;;;=*3534;;;;;;;;;;;;;;;;;;;;;;;;;;;;;;;;;__4;;;;;;;;;;;;",
";;;;;;;;;4 5 5/;;;;;;;;;;;;;;;4;4;4;;;;;;;;;;;;;;;4;;;;;;;;;;;;;",
";;;;;;;;;*355_;;;;;;;44!!|_5|5|5|5|5||!_==;;;;;;;;;;;;;(;;;;;;;;",
";;;;;;;;*5 5*;;;4(4;!!||555|959|9|9|959|9||44;4;;;;;;;/3/;;;;;;;",
";;;;;;;_5555;;;4_5_5!!44(44444(4;44444444!!|_5||4;;;;43*_;;;;;;;",
";;;;;;>5 5 (;;!555555|55!=5|5|5|5|9|5|!!9|9|5|9|9!4;;{*3/;;;;;;;",
";;;;;=5.5 (;;__535_5_5__(5_5|5|5|5|5|5|4|5|5|5|5|5!4;;_=;;;;;;;;",
";;;;45 5+=;(535355535554|555555|555|955_4|9|9|9|959|!;(;;;;;;;;;",
";;;;=.5.!;=3_335_5_5_5==_5_5_5|5_5|5|5|54!|5|5|5|5|5|!;;;;;;;;;;",
";;;;55+54433535353535_435_5555555|555|555;||5|9|5|9|5|!;;;4_4;;;",
";;;;5.55;=(4(==__5_53==5_5_5_5_5_5_5|5|5||(5|5||!!444!4;;(_*(;;;",
";;;;+.+_;(335__==44=!(_________!___!|__!|!44!444!!||9|4;4_*3/;;;",
";;;;3.55;;(3_333_3__(4=_=_=_=!=_=!=_=!=_=!44!5|5|5|5|!;;4*3*(;;;",
";;;;55+54;;=335353533(5353535><00>*55|555|=_5|555|9||;;;>3 3(;;;",
";;;;=@5._;;;{333333334_335>a,060~07a~5_5|5;5|5|5|5||;;;=3*3_;;;;",
";;;;45+.+!;;4333.3335{=3*,03'a##$#03'a055!!5555|5554;;43 5 4;;;;",
";;;;;=5@5.4;;=33333333;073_a7>-#1#-5_56a_4_5_5_5_5=;;;_*35=;;;;;",
";;;;;;_.@5+(;;_3333333={3>]_57#####>535>]45555555_;;;_ 5 _4;;;;;",
";;;;;;;55@55;;;3333333{4)a3330-###-335_a}__535_5_4;;= 3534;;;;;;",
";;;;;;;;+.@.*;;(3333%33(:,[>53]###03*0a>43535555=;;4 5 5/;;;;;;;",
";;;;;;;;(.5@5!;;(323233==3_07a/[,07a7>3_4535_5_!;;;5353!;;;;;;;;",
";;;;;;;;;=+.@5=;;{%333%3433333^00>:35354_35353_;;;*5 5:;;;;;;;;;",
";;;;;;;;;;!@5@5(;({32323(3333333333333_4353535;;;_5.55;;;;;;;;;;",
";;;;;;;;;;;5+.@54;43%333_=33%333.33353_=535354;;>5 5 4;;;;;;;;;;",
";;;;;;;;;;;45@5@!;;=23232(232333233333(3_333=;;4555.4;;;;;;;;;;;",
";;;;;;;;;;;;4.+.@=;;{2%338_333%333333{=3335_;;45 5 !;;;;;;;;;;;;",
";;;;;;;;;;;;;!5@.@(;;32323(3232333233==333_(;;_.5._;;;;;;;;;;;;;",
";;;;;;;;;;;;;;|.+@.;;(%2%342%3%3%333%(3333=;;_+5+54;;;;;;;;;;;;;",
";;;;;;;;;;;;;;;55@.5;;8323={23232323==333=;;4.5.54;;;;;;;;;;;;;;",
";;;;;;;;;;;;;;;(@.+@_;;{%23(%2%3%2%3={%33;;4.5+5!;;;;;;;;;;;;;;;",
";;;;;;;;;;;;;;;;4@5@.=;(2%24{3232323(323;;;55@5_;;;;;;;;;;;;;;;;",
";;;;;;;;;;;;;;;;;!@@+.4;=2%{=2%2%3%={33(;;5.+.5;;;;;;;;;;;;;;;;;",
";;;;;;;;;;;;;;;;;;_@5@5;;=22;223232({3=;;_5@55;;;;;;;;;;;;;;;;;;",
";;;;;;;;;;;;;;;;;;45@@@|;;22={%2%23(%{(;=5+.@4;;;;;;;;;;;;;;;;;;",
";;;;;;;;;;;;;;;;;;;45@.@!;;2{=22238{2(;45@5@=;;;;;;;;;;;;;;;;;;;",
";;;;;;;;;;;;;;;;;;;;!@@@@4;(%(32%242=;45+.@_4;;;;;;;;;;;;;;;;;;;",
";;;;;;;;;;;;;;;;;;;;;_.@.@;;8=8&2{8{;;_@5@5;;;;;;;;;;;;;;;;;;;;;",
";;;;;;;;;;;;;;;;;;;;;;5@@@@;;{42%({;;!@.@54;;;;;;;;;;;;;;;;;;;;;",
";;;;;;;;;;;;;;;;;;;;;;;.@@.|;(;22(;;4@5@.=;;;;;;;;;;;;;;;;;;;;;;",
";;;;;;;;;;;;;;;;;;;;;;;4@@@@_;;8{;;(+@@.>;;;;;;;;;;;;;;;;;;;;;;;",
";;;;;;;;;;;;;;;;;;;;;;;;4@.@._;(;;4@5@.5;;;;;;;;;;;;;;;;;;;;;;;;",
";;;;;;;;;;;;;;;;;;;;;;;;;_@@@@@555@@@@@;;;;;;;;;;;;;;;;;;;;;;;;;",
";;;;;;;;;;;;;;;;;;;;;;;;;;_@@@.@@@.@@@;;;;;;;;;;;;;;;;;;;;;;;;;;",
";;;;;;;;;;;;;;;;;;;;;;;;;;;!@@@@@@@@5;;;;;;;;;;;;;;;;;;;;;;;;;;;",
";;;;;;;;;;;;;;;;;;;;;;;;;;;;;!_555!4;;;;;;;;;;;;;;;;;;;;;;;;;;;;",
";;;;;;;;;;;;;;;;;;;;;;;;;;;;;;;;;;;;;;;;;;;;;;;;;;;;;;;;;;;;;;;;",
";;;;;;;;;;;;;;;;;;;;;;;;;;;;;;;;;;;;;;;;;;;;;;;;;;;;;;;;;;;;;;;;",
";;;;;;;;;;;;;;;;;;;;;;;;;;;;;;;;;;;;;;;;;;;;;;;;;;;;;;;;;;;;;;;;",
";;;;;;;;;;;;;;;;;;;;;;;;;;;;;;;;;;;;;;;;;;;;;;;;;;;;;;;;;;;;;;;;",
};