/* XPM */
static char *image_xpm[] = {
/* width height ncolors chars_per_pixel */
"128 128 44 1",
"  c #0066cc",
". c #0066ff",
"+ c #0033cc",
"@ c #0033ff",
"# c #cccc00",
"$ c #999900",
"% c #cc9900",
"& c #0099ff",
"* c #99cc00",
"= c #00ccff",
"- c #3366cc",
"; c #99ccff",
"> c #cccc33",
", c #6666cc",
"' c #ffffff",
") c #6699cc",
"! c #99cc66",
"~ c #669933",
"{ c #cccc66",
"] c #66cccc",
"^ c #9999ff",
"/ c #999999",
"( c #66ccff",
"_ c #999933",
": c #339999",
"< c #99cccc",
"[ c #ccffff",
"} c #6699ff",
"| c #3399cc",
"1 c #99cc33",
"2 c #669966",
"3 c #cccccc",
"4 c #6666ff",
"5 c #33ccff",
"6 c #ffcc33",
"7 c #3399ff",
"8 c #ccccff",
"9 c #3366ff",
"0 c #9999cc",
"a c #99cc99",
"b c #99ffff",
"c c #3333ff",
"d c #669999",
"e c #999966",
"''''''''''''''''''''''''''''''''''''''''''''''''''''''''''''''''''''''''''''''''''''''''''''''''''''''''''''''''''''''''''''''''",
"''''''''''''''''''''''''''''''''''''''''''''''''''''''''''''''''''''''''''''''''''''''''''''''''''''''''''''''''''''''''''''''''",
"''''''''''''''''''''''''''''''''''''''''''''''''''''''''''''''''''''''''''''''''''''''''''''''''''''''''''''''''''''''''''''''''",
"''''''''''''''''''''''''''''''''''''''''''''''''''''''''''''''''''''''''''''''''''''''''''''''''''''''''''''''''''''''''''''''''",
"''''''''''''''''''''''''''''''''''''''''''''''''''''''''''''''''''''''''''''''''''''''''''''''''''''''''''''''''''''''''''''''''",
"''''''''''''''''''''''''''''''''''''''''''''''''''''''''''''''''''''''''''''''''''''''''''''''''''''''''''''''''''''''''''''''''",
"''''''''''''''''''''''''''''''''''''''''''''''''''''''''''''''''''''''''''''''''''''''''''''''''''''''''''''''''''''''''''''''''",
"''''''''''''''''''''''''''''''''''''''''''''''''''''''''''''''''''''''''''''''''''''''''''''''''''''''''''''''''''''''''''''''''",
"''''''''''''''''''''''''''''''''''''''''''''''''''''''''''''''''''''''''''''''''''''''''''''''''''''''''''''''''''''''''''''''''",
"''''''''''''''''''''''''''''''''''''''''''''''''''''''''''''''''''''''''''''''''''''''''''''''''''''''''''''''''''''''''''''''''",
"''''''''''''''''''''''''''''''''''''''''''''''''''''''''''''''''''''''''''''''''''''''''''''''''''''''''''''''''''''''''''''''''",
"''''''''''''''''''''''''''''''''''''''''''''''''''''''''''''''''''''''''''''''''''''''''''''''''''''''''''''''''''''''''''''''''",
"''''''''''''''''''''''''''''''''''''''''''''''''''''''''''''''''''''''''''''''''''''''''''''''''''''''''''''''''''''''''''''''''",
"''''''''''''''''''''''''''''''''''''''''''''''''''''''''''''''''''''''''''''''''''''''''''''''''''''''''''''''''''''''''''''''''",
"''''''''''''''''''''''''''''''''''''''''38<8<8;8<8<8<8;8<8<8<8;8<8<8<8;8<8<8<8;8<8<8<88[3'''''''''''''''''''''''''''''''''''''''",
"''''''''''''''''''''''''''''''''''''';}-777-7|7-7|7-7|7-7|7-7|7-7|7-7|7-7|7-7|7-7|7-7|7-77(;''''''''''''''''''''''''''''''''''''",
"''''''''''''''''''''''''''''''''''<}-7 7-7-7-7-7-7-7-7-7-7-7-7-7-7-7-7-7-7-7-7-7-7-7-7-7-7-7-(3'''''''''''''''''''''''''''''''''",
"''''''''''''''''''''''''''''''''')7-7-7-7-7-7-7-7-7|7-7|7-7|7-7|7-7|7-7|7-7|7-7|7-7|7-7|7-7|7-}'''''''''''''''''''''''''''''''''",
"'''''''''''''''''''''''''''''''8-7-7 9-7 7-7 7-7 7-7 7-7-7-7 |-7-7-7 |-7-7-7 |-7-7-7-|-7-7-7 }8'''''''''''''''''''''''''''''''''",
"''''''''''''''''''''''''''''''8-7-7-797-7-7-7|7-7-7-7|7-7|7-7|7-7|7-7|7-7|7-7|7-7|7-7|7-7|7-}[''''''''''''''''''''''''''''''''''",
"'''''''''''''''''''''''''''''8 7-7 7-7 7-7 7-7 7-7 7-7-7-7-7-7-7-7-7-7-7-7-7-7-7-7-7-7-7-7-}8'''''''''''''''''''''''''''''''''''",
"''''''''''''''''''''''''''''[-7-7-7-7-7-7-}|7-}|7-}|7|}|7|}|}|}|}|}|}|}|}|}|}|}|}|}|}|}|7-}[''''''''''''''''''''''''''''''''''''",
"''''''''''''''''''''''''''''-9 7 9 7 9|;3'''8'''8'''8'''8'''8'''8'''8'''8'''8'''8'''8'''3;8'''''''''''''''''''''''''''''''''''''",
"'''''''''''''''''''''''''''}797-797-}8''''''''''''''''''''''''''''''''''''''''''''''''''''''''''''''''''''''''''''''''''''''''''",
"'''''''''''''''''''''''''')9 7 9-7 }8'''''''''''''''''''''''''''''''''''''''''''''''''''''''''''''''';<'''''''''''''''''''''''''",
"''''''''''''''''''''''''';797-7-7-}''''''''''''''''''''''''''''''''''''''''''''''''''''''''''''''''';-}8''''''''''''''''''''''''",
"''''''''''''''''''''''''<9 9 9 9 78'''''''''''''''''''''''''''''''''''''''''''''''''''''''''''''''';-|-}8'''''''''''''''''''''''",
"'''''''''''''''''''''''8797-797-78'''''''''''''''''''''''''''''''''''''''''''''''''''''''''''''''';-7|7-('''''''''''''''''''''''",
"''''''''''''''''''''''87 9 9 9 9^'''''''''''''''''''''''''''''''''''''''''''''''''''''''''''''''';-7-7-7)'''''''''''''''''''''''",
"''''''''''''''''''''''}99 7-7-7}'''''''''''''''''''''''''''''''''''''''''''''''''''''''''''''''''|7|7-7}''''''''''''''''''''''''",
"'''''''''''''''''''''^ 9 9 9 9|''''''''''''''''''''''''''''''''''''''''''''''''''''''''''''''''''[-7-7)'''''''''''''''''''''''''",
"''''''''''''''''''''899 797-79''''''''''''''''''''''''''''''''''''''''''''''''''''''''''''''''''''[|7;''''''''''''''''''''''''''",
"'''''''''''''''''''8 9 9 9 9-[''''''''''''''''''''''''''''''''''''''''''''''''''''''''''''''''''''';)'''''''''''''''''''''''''''",
"'''''''''''''''''''99 799 798''''''''''''''''''''''''''''8'88888888888''''''''''''''''''''''''''''''''''''''''''''''''''''''''''",
"''''''''''''''''''-9 9 9 9 ;''''''''''''''''''''88^^4494c4c4c9c4c4c4c9c4c44}4^^88'''''''''''''''''''''''''''''''''''''''''''''''",
"'''''''''''''''''}9 799.79}'''''''''''''''[^;}}94949494949494949494949494949494944}}88''''''''''''''''''''''''';''''''''''''''''",
"''''''''''''''''^9 9 9 9 }8'''''''''''88}4999499949994c494c494c4c4c494c4c4c494c4c4c494c}^'''''''''''''''''''''-78'''''''''''''''",
"''''''''''''''';9 9.9 9978'''''''88;[8'''''8;}}94949494949494949494949494949494949^^88'''''88^8''''''''''''''|7|}8''''''''''''''",
"''''''''''''''89 9 9 9 9<'''''''}999999}};;[8'''88^^}^}^}^^^^;^8^^^^}^}^4^4^}^^88'''88^^44c4c4c^8''''''''''[-7-7-}['''''''''''''",
"''''''''''''''7.999.999;''''''[9}9}9}9}9}9}9}4^^8''''''''''''''''''''''''''''''^;}}9494949494949}8'''''''''|7|7-7|['''''''''''''",
"'''''''''''''} 9 9 9 9)''''''8999}9999999499949998';949494949494949494949494^'^494c494c494c494c494^''''''')7-7-7-[''''''''''''''",
"''''''''''''^ 9.9.9.99'''''';9}9}9}9}9}9}9}949}9^'8949494949494949494949494948'449494949494949494944'''''''|7-7|['''''''''''''''",
"''''''''''';+9 9+9 9-'''''8}999799979999999999948'999994999499949994c994c4c4c48[c4c4c9c4c4c4c9c4c4c498'''''[-7-8''''''''''''''''",
"'''''''''''99.9.9.99'''''8}9}9}9}9}9}9}9}9}9}9};'^49}949}949}94949494949494949^'8949494949494949494949^'''''8|['''''''''''''''''",
"''''''''''-9 9+9 9 8''''^7979797979997999799974'84999499949994999499949994c494c8'}c494c4c4c494c4c4c494c}8''''[''''''''''''''''''",
"'''''''''89.9.9.9 ;''''}79}979}979}979}979}9}9''}9}949}949}949494949494949494944'849494949494949494949494;''''''''''''''''''''''",
"'''''''''}+9+9 9+}'''897979797979997999799999;';999999999999999499999994c994c994}'^4c4c4c9c4c4c4c9c4c4c4c9}'''''''''''''''''''''",
"'''''''''99.9.9.}''';779}779}779}7}9}9}9}9}9}'[9}9}9}9}9}9}9}949}949}9494949494948'}494949494949494949494944'''''''''''8''''''''",
"'''''''';9+9 9+9;'8}9797979797979797979797978'99979999999499949994999499949994999}8'94c494c494c494c494c494c498''''''''<7['''''''",
"''''''''^.9.9.99''';;}}779}779}979}979}979}^'^}9}9}9}9}9}9}949}949}949494949494949;'8949494949494949494949^^88''''''';7-['''''''",
"''''''''-.+9+.+}''8''''';;}}979797979797979'87979997999999999999999999999994999499988}94c9c4c9c4c4c44^^88'''888'''''<7-70'''''''",
"''''''''7.9.9.9;''[7(};;'''''[[;;}}9}779}98'(9}9}9}9}9}9}9}9}9}9}9}9}949}949}9494944'849494949}}88'''''88^^94^''''';7|7-;'''''''",
"'''''''' 9+.@9+8''';7797977(;[8'''88;;779;';9797979797999799979999999499949994999499^'^9944;8''''';^44c4c4c44'''''<7-7-7)'''''''",
"''''''''9@9.9.9;''''(77777777777}}88'''''''88;8;8;8;8;8;8;8;8;8;8;8;8;8;8;8;8;8;8;8;8''8''''[^;4494949494949''''';7-7-7-;'''''''",
"'''''''' .+9+.+;''''877797979797979797};;'''8888;888;888;888;888;888;888;888;888;8;8;'''^}94c994c9c4c9c4c9c8'''''} 7 7-7)'''''''",
"''''''''}.9.9.9}''''';77}777}777}777}777}8'7}779}7}9}9}9}9}9}9}9}9}9}9}9}9}9}949}949}8'4494949494949494949^''''''77-7-7-8'''''''",
"''''''''}9+.@9+9['''''}777977797779797979;';97979797979797979799979999999}99949994994'^994999499949494c4948'''''87 7-7 78'''''''",
"''''''''8@9.9@9.;''''''7777777777777777777'879}779}979}979)dae{_{_ad)9}9}9}9}9}949}9;'^9494949494949494948''''''}-7-7-7-''''''''",
"''''''''89+9+.+9+['''''[7777.7779797979797;'9797979797-/_##>~/d/d/e{$#_/-999999999948[99999499949994c994^''''''8 9 7 9 }''''''''",
"'''''''''}9@9.9.99''''''[77777777777}77777(';777}779)!>1a)}9})/eae)9})a1>e}9}9}9}9}}'^}9}949}9494949494}'''''''-797-797;''''''''",
"'''''''''[+.@9+.@9)''''''(77777777977797979[879797:1#!:797-!#######>-797,!%e-7999998'}99949994999499949'''''''-9 7 9-7-'''''''''",
"''''''''''}@9@9.9@9^'''''[(7777777777777777;'}77}e>e}977)_>e>#>###>#>|}979)_>d}9}9}'89}949}949}9494949'''''''}797-7-7-['''''''''",
"''''''''''89+.+.+.+9;'''''87&777.7779777979}[89)$1|797-!$e-)%###%###%1979997d#_}99}'}9999999999999999;'''''')9 9 9 9 }''''''''''",
"'''''''''''89.9@9.9.9[''''';5777777777777777['}#a777}d>_}77_6#>#6#>#6#)9}9}9}){1}9['}9}9}9}9}9}9}949^''''''8797-797-}'''''''''''",
"''''''''''''^.+.@9+.@}['''''}777777777777797}'}77797e>d7979>##########d7979797-e#0'897999}999999949}8'''''87 9 9 7 78'''''''''''",
"'''''''''''''49@9@9.9@^''''''7577777777777777[[777}1>|7777}###>###>###a979}979}9>>'}79}9}9}9}9}9}9}8''''''}97 797-7;''''''''''''",
"''''''''''''''9.+.@.+.+;'''''[77&777&7777777.;'}9)*!-797979>%#######%#d7979797->$'8799979999999999^''''''} 9 9 9 9)'''''''''''''",
"'''''''''''''''.9.9@9.9.'''''';75777577777777}';]#>7}777777d6#>#>#>#6>}9}779})>_;';9}9}9}9}9}9}9}}''''''897-797-7}''''''''''''''",
"'''''''''''''''8@.+.@9+.9''''''(77&777&77777778'|a$>d7977797_########)979797e>27;'979797979997999''''''8 9 9 9 9-'''''''''''''''",
"''''''''''''''''^@9@9@9@99''''''(7577757777777;'(7}2>1a|7777}1>###>#a9777|a#{)}7'8}979}979}9}9}9[''''''99 799 79['''''''''''''''",
"''''''''''''''''8}+.+.@.+.}''''';777&777&777&77';777|d_#_/|797d!_12)97-d_#_)979;'}9797979997999;''''''-9 9 9 9 ;''''''''''''''''",
"''''''''''''''''''9@9@9@9.9;''''';57577757775778'777777|a1>#{!adadae{>>1a)77}778'7}9}979}9}9}9^''''''}9 797979;'''''''''''''''''",
"''''''''''''''''''89@.+.@9+98'''''7777&7777777&(';77777777|)da_!_{_!2)|79797977';797979797979}8''''';9 9 9 9 }8'''''''''''''''''",
"''''''''''''''''''';9@9@9@9@9['''''7575757577757'877777777777777777777777777798'}9}779}979}978'''''89 999 7978''''''''''''''''''",
"'''''''''''''''''''',@@.+.@.+}'''''[&7&7&777&777;'77&7777777.777977797979797978[979797979797^'''''87 9 9 9 9<'''''''''''''''''''",
"'''''''''''''''''''''99@9@9@9.;'''''b75757575757(';7577777777777777777777777}}';}777}779}77}''''''}.799.799^''''''''''''''''''''",
"''''''''''''''''''''''+.@.+.@.+8'''''(&777&777&77[8777&77777777777977797779778[}97979797979''''''; 9 9 9 9)'''''''''''''''''''''",
"''''''''''''''''''''''[@.@9@9@99'''''[57575757577('(775777777777777777777777}'[77777777779['''''8 9.9 9.9-''''''''''''''''''''''",
"''''''''''''''''''''''';+@@.+.@.-''''';5&7&7&777&7'[&777&777&777&777.7779777}'}7979797979;'''''[ 9 9 9 9 8''''''''''''''''''''''",
"''''''''''''''''''''''''}@9@9@9@9}'''''(5757575757['(75757575777577777777777''77}777}777;''''''9999.9.9.8'''''''''''''''''''''''",
"'''''''''''''''''''''''''9@.@.+.@.^'''''75&7&5&775}'(7&777&777&777777777777}';97779777978''''',9 9 9 9 ^''''''''''''''''''''''''",
"'''''''''''''''''''''''''89@.@9@.@98'''''7575757575'[7575757775777577777777;'}7777777778'''''^9.9.9.9 }'''''''''''''''''''''''''",
"'''''''''''''''''''''''''';.+@@.+@@98''''8&5&7&5&7&;'(&7&777&777&777&777777'8777977797}'''''<9 9+9 9+98'''''''''''''''''''''''''",
"'''''''''''''''''''''''''''}9@9@9@9@}''''';757575757';57575757575777577757(';77777777}'''''87.9.9.9.98''''''''''''''''''''''''''",
"''''''''''''''''''''''''''''9.+@@.+@@^''''[(&5&5&5&78'7775&777&777&777&777;'777777777'''''87 9+9 9+9^'''''''''''''''''''''''''''",
"'''''''''''''''''''''''''''''99@.@9@.@8''''[57575757;'(7575757577757775777'877777777['''''}.9.9.9 9}''''''''''''''''''''''''''''",
"'''''''''''''''''''''''''''''8@.+@@.+@@['''';5&5&7&57';5&7&7&777&7&7&777&;'(&777&77;''''';+9+.+9+.-'''''''''''''''''''''''''''''",
"''''''''''''''''''''''''''''''8@9@9@9@.9'''''(57575758'757575757575757575['7577757('''''[99.9.9.99''''''''''''''''''''''''''''''",
"'''''''''''''''''''''''''''''''}@.@@@.@@9'''''75&5&5&(';75&7&5&775&777&77';777&7778'''''99+9+9+..8''''''''''''''''''''''''''''''",
"''''''''''''''''''''''''''''''''}@9@.@9@.}'''''5575757'[5757575757575757;'(777577;'''''99.9.9.9.;'''''''''''''''''''''''''''''''",
"''''''''''''''''''''''''''''''''89@@+@@.+@;''''b&5&5&5;'75&5&7&5&7&5&7&78[77&777('''''}9+.+9+.+}''''''''''''''''''''''''''''''''",
"'''''''''''''''''''''''''''''''''89@9@.@9@98''''b55755('[75757575757575(';57575}''''';9.9.9.9.}'''''''''''''''''''''''''''''''''",
"''''''''''''''''''''''''''''''''''^@@.@@@.+9''''[5&5&5&[[5&5&5&5&5&775&['5&7777'''''89+.+9+.@98'''''''''''''''''''''''''''''''''",
"'''''''''''''''''''''''''''''''''''}.@.@.@.@}''''8555&5;'(575757575757('[75757['''''9@9.9@9.9;''''''''''''''''''''''''''''''''''",
"''''''''''''''''''''''''''''''''''''9@@@+@@@+^'''';5&5&58[&5&5&5&7&5&7('}7&7&;'''''}+.+.+.+.)'''''''''''''''''''''''''''''''''''",
"'''''''''''''''''''''''''''''''''''''..@9@.@9@8''''(5557['575557555757[[5757(''''';@9.9@9.94''''''''''''''''''''''''''''''''''''",
"'''''''''''''''''''''''''''''''''''''8@@@.@@@.@'''''55&5('(5&5&5&5&5&(';75&58''''8+.@.+.@9-'''''''''''''''''''''''''''''''''''''",
"'''''''''''''''''''''''''''''''''''''';@.@.@.@.9''''[5555['55&5557575;'5575;'''''.9@9@9@9.''''''''''''''''''''''''''''''''''''''",
"'''''''''''''''''''''''''''''''''''''''}@@@@+@@@4'''';&5&b'(&5&5&5&5&'85&5('''''-.@.+.+.+;''''''''''''''''''''''''''''''''''''''",
"''''''''''''''''''''''''''''''''''''''''9@.@9@.@9^''''(=5(';55575557('b755'''''}9@9@9.9@;'''''''''''''''''''''''''''''''''''''''",
"''''''''''''''''''''''''''''''''''''''''89@@@@@@@.8'''85&58'75&5&5&5;'757'''''}.@.+.@.+4''''''''''''''''''''''''''''''''''''''''",
"''''''''''''''''''''''''''''''''''''''''';.@.@.@@@9['''[5=b'(=555&55';55['''';9@.@9@9@9[''''''''''''''''''''''''''''''''''''''''",
"''''''''''''''''''''''''''''''''''''''''''}@@@@@+@@48'''(55';5&5&5&;'(&;''''89@.+@@.+.8'''''''''''''''''''''''''''''''''''''''''",
"'''''''''''''''''''''''''''''''''''''''''''9.@.@9@.@^''''(5['55=555['5('''''}@9@9@9@9^''''''''''''''''''''''''''''''''''''''''''",
"''''''''''''''''''''''''''''''''''''''''''''@@@@@@@@@8''''5;'b&5=55';58''''}@.+@@.@.4'''''''''''''''''''''''''''''''''''''''''''",
"''''''''''''''''''''''''''''''''''''''''''''[@.@@@.@@@''''[5'[555=b'(;'''';@.@9@.@99''''''''''''''''''''''''''''''''''''''''''''",
"''''''''''''''''''''''''''''''''''''''''''''';@@@@@@+@@''''b;'55&5[[(''''8@.+@@.+@@'''''''''''''''''''''''''''''''''''''''''''''",
"''''''''''''''''''''''''''''''''''''''''''''''^@.@@@.@.9''''['b=5(';'''''9.@9@.@9@8'''''''''''''''''''''''''''''''''''''''''''''",
"''''''''''''''''''''''''''''''''''''''''''''''[9@@@@@@@@}'''['85=[''''''9.@@@.@@@^''''''''''''''''''''''''''''''''''''''''''''''",
"'''''''''''''''''''''''''''''''''''''''''''''''[9@.@@@.@@^'''''(5''''''}.@.@.@9@}'''''''''''''''''''''''''''''''''''''''''''''''",
"'''''''''''''''''''''''''''''''''''''''''''''''';@@@@@@@@@}''''[('''''9@+@@@+@@98'''''''''''''''''''''''''''''''''''''''''''''''",
"'''''''''''''''''''''''''''''''''''''''''''''''''^.@.@@@.@.98''''''';..@9@.@9@98''''''''''''''''''''''''''''''''''''''''''''''''",
"''''''''''''''''''''''''''''''''''''''''''''''''''4@@@@@@@@@@99}}}9@@@@@@.@@@.^'''''''''''''''''''''''''''''''''''''''''''''''''",
"'''''''''''''''''''''''''''''''''''''''''''''''''''9@@.@@@.@@@.@@@.@@@.@.@.@.}''''''''''''''''''''''''''''''''''''''''''''''''''",
"''''''''''''''''''''''''''''''''''''''''''''''''''''@@@@@@@@@@@@@@@@+@@@@@@@-'''''''''''''''''''''''''''''''''''''''''''''''''''",
"'''''''''''''''''''''''''''''''''''''''''''''''''''''9.@.@@@.@.@.@@@.@.@.@.}''''''''''''''''''''''''''''''''''''''''''''''''''''",
"''''''''''''''''''''''''''''''''''''''''''''''''''''''4@@@@@@@@@@@@@@@@@@.^'''''''''''''''''''''''''''''''''''''''''''''''''''''",
"'''''''''''''''''''''''''''''''''''''''''''''''''''''''89@.@@@.@@@.@@@.@}8''''''''''''''''''''''''''''''''''''''''''''''''''''''",
"''''''''''''''''''''''''''''''''''''''''''''''''''''''''8;9@@@@@@@@@@@48['''''''''''''''''''''''''''''''''''''''''''''''''''''''",
"'''''''''''''''''''''''''''''''''''''''''''''''''''''''''''[8}}9}9}^['''''''''''''''''''''''''''''''''''''''''''''''''''''''''''",
"''''''''''''''''''''''''''''''''''''''''''''''''''''''''''''''''''''''''''''''''''''''''''''''''''''''''''''''''''''''''''''''''",
"''''''''''''''''''''''''''''''''''''''''''''''''''''''''''''''''''''''''''''''''''''''''''''''''''''''''''''''''''''''''''''''''",
"''''''''''''''''''''''''''''''''''''''''''''''''''''''''''''''''''''''''''''''''''''''''''''''''''''''''''''''''''''''''''''''''",
"''''''''''''''''''''''''''''''''''''''''''''''''''''''''''''''''''''''''''''''''''''''''''''''''''''''''''''''''''''''''''''''''",
"''''''''''''''''''''''''''''''''''''''''''''''''''''''''''''''''''''''''''''''''''''''''''''''''''''''''''''''''''''''''''''''''",
"''''''''''''''''''''''''''''''''''''''''''''''''''''''''''''''''''''''''''''''''''''''''''''''''''''''''''''''''''''''''''''''''",
"''''''''''''''''''''''''''''''''''''''''''''''''''''''''''''''''''''''''''''''''''''''''''''''''''''''''''''''''''''''''''''''''",
"''''''''''''''''''''''''''''''''''''''''''''''''''''''''''''''''''''''''''''''''''''''''''''''''''''''''''''''''''''''''''''''''",
};