/* XPM */
static char *image_xpm[] = {
/* width height ncolors chars_per_pixel */
"32 32 32 1",
"  c #0066cc",
". c #0033cc",
"+ c #0066ff",
"@ c #0033ff",
"# c #cccc00",
"$ c #0099ff",
"% c #3366cc",
"& c #99ccff",
"* c #ffffff",
"= c #6699cc",
"- c #66cccc",
"; c #cccc66",
"> c #9999ff",
", c #999999",
"' c #66ccff",
") c #99cccc",
"! c #ccffff",
"~ c #6699ff",
"{ c #3399cc",
"] c #cccccc",
"^ c #6666ff",
"/ c #ffcc33",
"( c #33ccff",
"_ c #3399ff",
": c #ccccff",
"< c #3366ff",
"[ c #9999cc",
"} c #99cc99",
"| c #99ffff",
"1 c #3333ff",
"2 c #669999",
"3 c #999966",
"********************************",
"********************************",
"********************************",
"*********!!:!:!:!:!:!:**********",
"********=_ _%_%_%_%_%_%&********",
"*******__=&&&&&&&)&&&&&*********",
"******=<=***************]~:*****",
"*****>__****************&~******",
"****&<%***::&:>>>&>::***********",
"***:<%**&>&>>~>>>~>>>>:>***=:***",
"**:<.&:~<<<^><<^1^<>1<1^<::~]***",
"**>+&&~<~<~>~<^<^<^<&<^<^<:*****",
"** <:&~~<__~<_<<<^<<^~1^^>^:*':*",
"**<<*_~~&~!~&~&~>~>~>:>>~<~*&%**",
"**%<]!__<_~_<=222=%<<><^1<:*%_**",
"**:@_*!___~[)=,#/2=2&~~<~&*~_&**",
"***~@~*'___&2={##}<=)_<<~*=<=***",
"****~@&*'__'-2-3;2-=&<~~*&_<****",
"****:<@::___~__={_<&<_<!:< !****",
"*****:<+*&(_&______&~_&*~+:*****",
"******>+<*~__'$____'_'*~ >******",
"*******~+<*(('(___&_'!&+~*******",
"********%@~!$'_($_'_::.<]*******",
"*********+<:!(&_(''&*<<:********",
"*********:@<:''($&_*<+>*********",
"**********&@<!|(('*~+^**********",
"***********~.~:|'!~+%***********",
"************<@>!*&+@************",
"************:<@@@@@:************",
"*************:~@<<!*************",
"********************************",
"********************************",
};