/* XPM */
static char *image_xpm[] = {
/* width height ncolors chars_per_pixel */
"16 16 20 1",
"  c #0066cc",
". c #0099ff",
"+ c #0033ff",
"@ c #3366cc",
"# c #99ccff",
"$ c #ffffff",
"% c #6699cc",
"& c #9999ff",
"* c #66ccff",
"= c #339999",
"- c #ccffff",
"; c #6699ff",
"> c #669966",
", c #6666ff",
"' c #33ccff",
") c #3399ff",
"! c #ccccff",
"~ c #3366ff",
"{ c #99cc99",
"] c #999966",
"$$$$$$$$$$$$$$$$",
"$$$$$!$-$!$$$$$$",
"$$$-@;%;%;%#$$$$",
"$$$@$$$$$$$$#$$$",
"$$@!!!&&&&&!$-!$",
"$;#;;~;~,,;~&#$$",
"$~#;)&~;~;;;,#%$",
"$~!));%>{%;~;!;$",
"$$ !)*={]%%)!;!$",
"$$!~#)*));;#;#$$",
"$$$&@*)).*;&%$$$",
"$$$$;&*)**#~$$$$",
"$$$$!~&*'# $$$$$",
"$$$$$!~#-~!$$$$$",
"$$$$$$#~+#$$$$$$",
"$$$$$$$$$$$$$$$$",
};